<?xml version="1.0" encoding="UTF-8" standalone="no"?>
<svg width="61px" height="64px" viewBox="0 0 61 64" version="1.1" xmlns="http://www.w3.org/2000/svg" xmlns:xlink="http://www.w3.org/1999/xlink">
    <!-- Generator: Sketch 47.1 (45422) - http://www.bohemiancoding.com/sketch -->
    <title>nt_sunny</title>
    <desc>Created with Sketch.</desc>
    <defs></defs>
    <g id="Page-1" stroke="none" stroke-width="1" fill="none" fill-rule="evenodd">
        <g id="nt_sunny" fill="#00CA9D">
            <path d="M30.0318952,63.02649 C20.2533824,64.0306328 11.9803568,60.9459185 5.12220294,54.0882043 C3.48635679,52.4523471 2.05399781,50.6153471 0.559638838,48.8443471 C-0.100104752,48.0602043 -0.144617573,47.4787757 0.259177299,46.86749 C0.659792684,46.2640614 1.32907474,46.1210614 2.28610038,46.3567757 C9.04251063,48.0162043 15.7353311,47.9046328 22.0943055,44.9487757 C32.3688183,40.1716328 38.1936388,32.0253471 39.6323568,20.9373471 C40.4733311,14.4489185 38.8088696,8.41148997 35.427485,2.82034711 C35.3209722,2.64591854 35.2160491,2.47148997 35.1063568,2.29863283 C34.7248183,1.69520425 34.7136901,1.09020425 35.1747158,0.535489969 C35.6389209,-0.0207957451 36.2621004,-0.119795745 36.9186645,0.128489969 C46.7194337,3.8260614 54.3756388,9.94363283 57.9970747,19.8939185 C62.5389722,32.3726328 60.0208183,43.6193471 50.6604081,53.1893471 C46.0644594,57.88949 40.3858952,60.83749 33.9506132,62.3319185 C32.6597414,62.6320614 31.3386645,62.7986328 30.0318952,63.02649 L30.0318952,63.02649 Z M5.11743371,49.92549 C5.71199781,50.5729185 6.23184397,51.1653471 6.7803055,51.72949 C10.503485,55.56849 14.8085106,58.5117757 20.1452799,59.6070614 C29.2688183,61.4786328 37.6849209,59.6353471 45.217126,54.2830614 C56.0019465,46.6207757 59.5836388,33.9063471 55.7412286,21.9493471 C53.1292799,13.8250614 47.5063568,8.2700614 39.9153311,4.51120425 C39.8501517,4.47977568 39.767485,4.48134711 39.699126,4.46877568 C44.4890235,16.0926328 43.6591773,27.2042043 36.0824594,37.2943471 C28.4580491,47.4489185 17.8433311,51.2502043 5.11743371,49.92549 L5.11743371,49.92549 Z" id="Imported-Layers-Copy-6"></path>
        </g>
    </g>
</svg>