<?xml version="1.0" encoding="UTF-8" standalone="no"?>
<svg width="63px" height="72px" viewBox="0 0 63 72" version="1.1" xmlns="http://www.w3.org/2000/svg" xmlns:xlink="http://www.w3.org/1999/xlink">
    <!-- Generator: Sketch 47.1 (45422) - http://www.bohemiancoding.com/sketch -->
    <title>Fill 1</title>
    <desc>Created with Sketch.</desc>
    <defs></defs>
    <g id="Page-1" stroke="none" stroke-width="1" fill="none" fill-rule="evenodd">
        <polyline id="Fill-1" fill="#00CA9D" points="58.031295 43.4068789 57.6099488 40.4045671 44.7914847 42.2759705 34.4740681 36.2035892 44.7898948 30.1328211 57.6099488 32.0042245 58.031295 29.0035259 48.962017 27.6774108 63 19.4158101 61.5133635 16.7893923 47.4737905 25.0526062 50.8843096 16.3812328 48.1225046 15.2535509 43.3032582 27.5064032 33.2259294 33.436816 33.2259294 21.4356352 41.225147 11.0541862 38.8862782 9.17955627 33.2259294 16.5264278 33.2259294 0 30.2510663 0 30.2510663 16.5264278 24.5891275 9.17955627 22.2518487 11.0541862 30.2510663 21.4356352 30.2510663 33.7175266 19.6967418 27.5064032 14.8759054 15.2535509 12.1141004 16.382846 15.5246195 25.0526062 1.48663655 16.7893923 0 19.4158101 14.037983 27.6774108 4.96711506 29.0035259 5.39005123 32.0042245 18.2085153 30.1328211 28.5259319 36.2035892 18.2069253 42.2759705 5.39005123 40.4045671 4.96711506 43.4068789 14.037983 44.7313808 0 52.9929814 1.48663655 55.6193993 15.5262095 47.3561854 12.1141004 56.0275588 14.8759054 57.1552407 19.6951518 44.9023883 30.2510663 38.691265 30.2510663 50.924758 22.2518487 61.3094336 24.5907175 63.180837 30.2510663 55.8355787 30.2510663 71.3940392 33.2259294 71.3940392 33.2259294 55.8355787 38.8862782 63.180837 41.225147 61.3094336 33.2259294 50.9263713 33.2259294 38.9719755 43.3032582 44.9023883 48.1225046 57.1552407 50.8843096 56.0275588 47.4737905 47.3561854 61.5133635 55.6193993 63 52.9929814 48.962017 44.7313808 58.031295 43.4068789"></polyline>
    </g>
</svg>